<?xml version="1.0" encoding="utf-8"?>
<!-- Generator: Adobe Illustrator 24.2.1, SVG Export Plug-In . SVG Version: 6.00 Build 0)  -->
<svg version="1.1" id="Layer_1" xmlns="http://www.w3.org/2000/svg" xmlns:xlink="http://www.w3.org/1999/xlink" x="0px" y="0px"
	 viewBox="0 0 388.5 355.3" style="enable-background:new 0 0 388.5 355.3;" xml:space="preserve">
<style type="text/css">
	.st0{fill:#FFFFFF;}
	.st1{fill:#0078AE;}
	.st2{fill:#0098C5;}
	.st3{fill:#0085B4;}
	.st4{fill:#56B6CD;}
	.st5{fill:#0C6CA6;}
	.st6{fill:none;}
</style>
<g>
	<g>
		<g>
			<path class="st0" d="M119.2,230.2c2,0,3.4,0.4,4.3,1.1c0.7,0.6,1.3,1.4,1.7,2.5c0.4,1,0.6,2.2,0.6,3.5c0,2.8-0.8,4.8-2.3,6.1
				c-0.9,0.7-2.3,1.1-4.3,1.1H113v-14.2H119.2z M118.9,232.1h-4v10.3h4c1.7,0,3-0.4,3.7-1.1c0.8-0.8,1.2-2.2,1.2-4.1
				c0-1.9-0.4-3.2-1.2-4C121.9,232.5,120.6,232.1,118.9,232.1z"/>
			<path class="st0" d="M140.7,244.4v-14.2h1.9v14.2H140.7z"/>
			<path class="st0" d="M169.1,232.1h-8.8v10.3h8.8v-4.2h-4.5v-1.8h6.4v4.6c0,1.3-0.2,2.2-0.6,2.7c-0.4,0.5-1.1,0.7-2.1,0.7h-7.3
				c-1,0-1.7-0.2-2.1-0.7c-0.4-0.5-0.6-1.4-0.6-2.7v-7.5c0-1.3,0.2-2.2,0.6-2.7c0.4-0.5,1.1-0.7,2.1-0.7h7.3c1,0,1.7,0.2,2.1,0.7
				c0.4,0.4,0.6,1.3,0.6,2.5v0.4l-1.9,0.5V232.1z"/>
			<path class="st0" d="M186.5,244.4v-14.2h1.9v14.2H186.5z"/>
			<path class="st0" d="M208.7,232.1v12.3h-1.9v-12.3h-5.1v-1.9h12.2v1.9H208.7z"/>
			<path class="st0" d="M225,244.4l6.1-14.2h2l6.3,14.2h-2.1l-1.4-3.5h-7.6l-1.4,3.5H225z M229.1,239.1h6.1l-3-7.3L229.1,239.1z"/>
			<path class="st0" d="M253.2,244.4v-14.2h1.9v12.2h8.5v2H253.2z"/>
		</g>
		<g>
			<path class="st1" d="M263.4,141.1c-0.1-2-0.3-4-0.5-6c-1.7-13.3-6.3-25.6-11.3-38.2c-2-5-4.2-10.5-6.8-16
				c-4.5-9.2-10.2-18.1-18.1-23.4c-6.7-4.5-15.7-3.8-23.3-3.9c-12-0.1-24.3-0.8-36.2,0.1c-1.1,0.1-2.4,0.2-3.6,0.3
				c-5.9,0.6-12.7,1.5-18.9,3.6c-4.2,1.4-8,3.3-11,5.8c-0.8,0.7-1.5,1.4-2.1,2.1c-11.7,13.6-17.6,33.3-19,52.1
				c-0.5,6.4-0.4,12.7,0.2,18.6c1.4,14.4,3.5,30.4,7.3,44.3c2.7,10,8.3,15.4,15.7,18.7c5,2.2,10.7,3.3,17.1,4.2
				c0.1,8.3-10.5,13.2-9.9,21.6c0.6-0.3,24.4-8.5,36.5-12.5c7.1-2.4,13.8-4.5,20.7-6.5c4.5-1.3,9-2.4,13.6-3.5
				c2.1-0.5,4.2-1.2,6.3-1.9c1.9-0.7,3.9-1.6,5.8-2.6c7.5-3.8,14.6-9.1,21-14.3C261.6,171.5,264.4,160.7,263.4,141.1z"/>
			<g>
				<path class="st2" d="M228.9,94.5c4.8-5,10.1-9.5,15.8-13.6c-4.5-9.2-10.2-18.1-18.1-23.4c-6.7-4.5-15.7-3.8-23.3-3.9
					c-12-0.1-24.3-0.8-36.2,0.1c-1.1,0.1-2.4,0.2-3.6,0.3c1.4,2.6,2.7,5.2,4,7.9C190.5,68.2,211.4,79.4,228.9,94.5z"/>
				<path class="st3" d="M228.9,94.5c-17.6-15.1-38.5-26.3-61.5-32.5c6.6,14.6,10.3,30.8,10.3,47.8c0,8.4-0.9,16.6-2.6,24.5
					c8.5,5.1,16.2,11.3,23.1,18.3C202.8,130.2,213.6,110.2,228.9,94.5z"/>
				<path class="st3" d="M115.2,117.6c6.9,0,13.6,0.6,20.2,1.8c-2.9-10.1-4.4-20.7-4.4-31.7c0-8.3,0.9-16.4,2.6-24.3
					c-0.8,0.7-1.5,1.4-2.1,2.1c-11.7,13.6-17.6,33.3-19,52.1C113.4,117.6,114.3,117.6,115.2,117.6z"/>
				<path class="st3" d="M163.5,54c-5.9,0.6-12.7,1.5-18.9,3.6c7.8,0.9,15.4,2.4,22.8,4.4C166.3,59.2,164.9,56.6,163.5,54z"/>
				<path class="st1" d="M135.5,119.3c14.3,2.5,27.7,7.6,39.7,14.9c1.7-7.9,2.6-16.1,2.6-24.5c0-17-3.7-33.2-10.3-47.8
					c-7.4-2-15-3.5-22.8-4.4c-4.2,1.4-8,3.3-11,5.8c-1.7,7.8-2.6,15.9-2.6,24.3C131.1,98.6,132.6,109.3,135.5,119.3z"/>
				<path class="st3" d="M228.9,94.5c13.4,11.5,24.9,25.3,33.9,40.6c-1.7-13.3-6.3-25.6-11.3-38.2c-2-5-4.2-10.5-6.8-16
					C239.1,85,233.8,89.5,228.9,94.5z"/>
				<path class="st1" d="M228.9,94.5c-15.3,15.7-26.2,35.7-30.7,58.1c12.4,12.7,21.9,28.1,27.4,45.4c7.5-3.8,14.6-9.1,21-14.3
					c14.9-12.1,17.7-22.9,16.7-42.5c-0.1-2-0.3-4-0.5-6C253.9,119.7,242.4,106,228.9,94.5z"/>
				<path class="st4" d="M162.6,167.1c-7,12.2-16.1,23.1-26.9,32c5,2.2,10.7,3.3,17.1,4.2c0.1,8.3-10.5,13.2-9.9,21.6
					c0.6-0.3,24.4-8.5,36.5-12.5c7.1-2.4,13.8-4.5,20.7-6.5c-1.2-4.4-2.1-8.9-2.8-13.5C184.2,186.2,172.4,177.6,162.6,167.1z"/>
				<path class="st4" d="M162.6,167.1c-7,12.2-16.1,23.1-26.9,32c5,2.2,10.7,3.3,17.1,4.2c0.1,8.3-10.5,13.2-9.9,21.6
					c0.6-0.3,24.4-8.5,36.5-12.5c7.1-2.4,13.8-4.5,20.7-6.5c-1.2-4.4-2.1-8.9-2.8-13.5C184.2,186.2,172.4,177.6,162.6,167.1z"/>
				<path class="st3" d="M162.6,167.1c-7,12.2-16.1,23.1-26.9,32c5,2.2,10.7,3.3,17.1,4.2c0.1,8.3-10.5,13.2-9.9,21.6
					c0.6-0.3,24.4-8.5,36.5-12.5c7.1-2.4,13.8-4.5,20.7-6.5c-1.2-4.4-2.1-8.9-2.8-13.5C184.2,186.2,172.4,177.6,162.6,167.1z"/>
				<path class="st4" d="M197.3,192.5c-0.8-5.5-1.2-11.2-1.2-17c0-7.8,0.8-15.5,2.3-22.9c-6.9-7-14.7-13.2-23.1-18.3
					c-2.5,11.7-6.8,22.8-12.6,32.9C172.4,177.6,184.2,186.2,197.3,192.5z"/>
				<path class="st1" d="M197.3,192.5c-0.8-5.5-1.2-11.2-1.2-17c0-7.8,0.8-15.5,2.3-22.9c-6.9-7-14.7-13.2-23.1-18.3
					c-2.5,11.7-6.8,22.8-12.6,32.9C172.4,177.6,184.2,186.2,197.3,192.5z"/>
				<path class="st4" d="M162.6,167.1c-12.6-13.3-22-29.7-27.1-47.8c-6.6-1.2-13.3-1.8-20.2-1.8c-0.9,0-1.8,0-2.7,0
					c-0.5,6.4-0.4,12.7,0.2,18.6c1.4,14.4,3.5,30.4,7.3,44.3c2.7,10,8.3,15.4,15.7,18.7C146.5,190.2,155.6,179.4,162.6,167.1z"/>
				<path class="st1" d="M162.6,167.1c-12.6-13.3-22-29.7-27.1-47.8c-6.6-1.2-13.3-1.8-20.2-1.8c-0.9,0-1.8,0-2.7,0
					c-0.5,6.4-0.4,12.7,0.2,18.6c1.4,14.4,3.5,30.4,7.3,44.3c2.7,10,8.3,15.4,15.7,18.7C146.5,190.2,155.6,179.4,162.6,167.1z"/>
				<path class="st5" d="M175.2,134.2c-12-7.2-25.4-12.4-39.7-14.9c5.1,18.1,14.6,34.4,27.1,47.8C168.3,157,172.6,145.9,175.2,134.2
					z"/>
				<path class="st4" d="M200.1,206c4.5-1.3,9-2.4,13.6-3.5c2.1-0.5,4.2-1.2,6.3-1.9c-7.9-1.9-15.5-4.6-22.7-8
					C197.9,197.1,198.9,201.6,200.1,206z"/>
				<path class="st1" d="M200.1,206c4.5-1.3,9-2.4,13.6-3.5c2.1-0.5,4.2-1.2,6.3-1.9c-7.9-1.9-15.5-4.6-22.7-8
					C197.9,197.1,198.9,201.6,200.1,206z"/>
				<path class="st5" d="M196,175.5c0,5.8,0.4,11.4,1.2,17c7.2,3.4,14.8,6.1,22.7,8c1.9-0.7,3.9-1.6,5.8-2.6
					c-5.6-17.2-15.1-32.7-27.4-45.4C196.8,160,196,167.6,196,175.5z"/>
			</g>
			<g>
				<g>
					<path class="st6" d="M163.9,144.5c-2.1,1.4-3.7,3.1-4.9,5.1c-1.2,1.9-1.8,4.3-1.8,6.9c0,3.5,0.9,6,2.7,7.7
						c1.8,1.6,4.1,2.4,6.9,2.4c3,0,5.6-0.7,7.8-2.2c2.3-1.4,4.2-3.1,5.7-5.1l0.4-21.6c-3.5,1-6.7,2.1-9.3,3.1
						C168.7,141.8,166.2,143,163.9,144.5z"/>
					<path class="st0" d="M156.2,113.8c-2.2,1.4-3.9,2.9-5.3,4.7c-1.4,1.8-2,3.6-2,5.5c0,1.8,0.5,3.5,1.5,5c1,1.5,2.5,2.2,4.6,2.2
						c2.3,0,4.2-0.6,5.5-1.8c1.3-1.2,2-2.5,2-4c0-1.4-0.2-2.9-0.6-4.5c-0.4-1.6-0.6-2.9-0.6-3.7c0.7-0.7,1.8-1.4,3.5-2
						c1.3-0.5,2.8-0.8,4.3-0.9l-3.9-3.9c-0.7,0.2-1.3,0.3-2,0.5C160.3,111.7,158,112.7,156.2,113.8z"/>
					<g>
						<path class="st0" d="M198.3,166.4c-1.4,0-2.3-0.3-3-0.6c-1.2-0.7-2-1.5-2.6-2.4c-0.6-1-0.8-2.3-0.8-3.9
							c0-5.5,0.1-10.5,0.2-15.1c0.1-2.2,0.1-4.5,0.1-7l-11.7-11.7c0,0.1,0.1,0.2,0.1,0.3v6.2c-1.8,1.1-5.9,2.6-11.7,4.5
							c-5.7,1.9-9.6,3.2-11.5,3.9c-1.5,0.6-3.1,1.4-4.8,2.3c-1.7,1-3.1,2.1-4.1,3.3c-1.3,1.5-2.3,3.2-3,5.1c-0.7,1.9-1,4-1,6.4
							c0,4.6,1.5,8.3,4.5,11.1c3,2.8,6.8,4.3,11.4,4.3c4.4,0,8.1-0.6,11.2-2.1c3.1-1.6,6-3.7,8.7-6.6h0.4c0.5,2.9,1.8,4.9,3.7,6.4
							c1.9,1.5,4.5,2.2,7.8,2.2c1.9,0,3.5-0.3,5-0.7c1.5-0.4,3.4-1.1,5.1-1.8v-4C201.3,166.5,199.7,166.5,198.3,166.4z M180.3,159.1
							c-1.5,2-3.4,3.7-5.7,5.1c-2.3,1.4-4.9,2.2-7.8,2.2c-2.8,0-5.1-0.8-6.9-2.4c-1.8-1.6-2.7-4.2-2.7-7.7c0-2.7,0.6-5,1.8-6.9
							c1.2-1.9,2.9-3.6,4.9-5.1c2.3-1.5,4.8-2.8,7.4-3.8c2.7-1,5.8-2,9.3-3.1L180.3,159.1z"/>
					</g>
				</g>
				<g>
					<path class="st0" d="M198.4,109.1c-3,0-6,0.6-9,1.8c-3.1,1.2-5.9,2.9-8.5,5.3l-0.4-0.1V81.3l-0.6-0.8l-22.4,1.2v3.4
						c0.6,0.1,2.3,0.2,4.2,0.5c1.9,0.2,3,0.6,3.8,1c1,0.5,1.7,1.4,2.3,2.6c0.6,1.2,0.8,2.4,0.8,3.6v21.2l11.8,11.6v-5.3
						c1.8-1.7,3.7-3,5.9-4c2.2-1,4.7-1.5,7.7-1.5c3.2,0,6,0.6,8.3,1.9s4.2,3,5.6,5c1.4,2,2.5,4.4,3.1,7.2c0.7,2.7,1,5.4,1,8.1
						c0,6.3-1.2,11.4-3.5,15.4l16.5-16.5c-0.2-7.9-2.7-14.3-7.6-19.3C212.3,111.7,206,109.1,198.4,109.1z"/>
				</g>
				<g>
					<path class="st0" d="M226.9,140.3c-0.1,0.5-0.2,1.3-0.6,2.5c-0.3,1.1-0.5,2.2-0.5,3.3c0,0.9,0.4,1.7,1.3,2.4
						c0.9,0.7,2.1,1.1,3.7,1.1c1.5,0,2.5-0.5,3.2-1.4c0.6-0.9,1-2,1-3.2c0-2.8-1.2-5.1-3.6-6.7c-1.7-1.1-3.7-1.9-6.1-2.2l-2.5,2.5
						c0.7,0.1,1.4,0.2,2.1,0.3C225.7,139.1,226.4,139.6,226.9,140.3z"/>
					<path class="st0" d="M221.3,172.8c3.1,0,6.1-0.8,8.9-2.5c2.9-1.6,5.2-3.9,7-6.7l-2.6-1.5c-1.5,2.2-3.1,3.9-4.9,5
						c-1.7,1.1-3.9,1.7-6.5,1.7c-3.6,0-6.5-1.4-8.7-4.2c-2.2-2.8-3.3-6.4-3.3-10.8c0-1.6,0.1-3,0.3-4.4l-8.3,8.3
						c0.6,4,2.1,7.3,4.6,9.9C211.1,171.1,215.6,172.8,221.3,172.8z"/>
				</g>
			</g>
		</g>
	</g>
	<g>
		<g>
			<g>
				<path class="st0" d="M148.6,301.2c0.9,1.7,2.3,2.4,3.5,2.4h0.3v0.4h-12.9v-0.4h0.4c1,0,2.2-0.9,1.6-2.5l-2-5h-9.5l-2.1,5
					c-0.7,1.6,0.5,2.6,1.6,2.6h0.4v0.4H121v-0.4h0.4c1.2,0,2.6-0.7,3.4-2.3l9.4-21.2c0.3-0.6,1.7-3.8,2-5.1c0-0.1,0.1-0.2,0.2-0.2
					l0,0c0.1,0,0.2,0.1,0.2,0.1L148.6,301.2z M138.7,294.3l-4-10l-4.2,10H138.7z"/>
				<path class="st0" d="M164.7,275.6c5.9,0,10.3,2,10.3,7c0,3.7-2.4,5.7-5,6c4.1,0.4,7.2,3.2,7.2,7.5c0,5.2-4.6,7.9-11.4,7.9h-12.9
					l0-0.4h0.5c1.4,0,2.6-1.1,2.6-2.5v-22.6c0-1.4-1.2-2.5-2.6-2.5h-0.5l0-0.4L164.7,275.6z M164,302.2c3.6,0,6.2-2,6.2-6.6
					c0-4.8-3.1-6.6-6.7-6.6l0-0.4c2.6,0,5-1.5,5-5.6c0-4.1-2.1-5.7-5.2-5.7h-1.2v24.8L164,302.2z"/>
				<path class="st0" d="M208.3,292.1l0.4,7c-1.8,3-5.3,5.4-11.4,5.4c-10,0-16.5-5.6-16.5-14.8c0-9.1,6.3-14.7,16.6-14.7
					c4.3,0,7.8,1,10.1,2.2l0.1,7h-0.3c-1.5-5.3-5-7.5-9.4-7.5c-6.4,0-10.4,5-10.4,12.9c0,8,3.8,13,9.9,13.2c6.3,0,9.4-2.7,10.7-10.7
					L208.3,292.1z"/>
				<path class="st0" d="M251.3,275.6v0.4H251c-1.2,0-2.9,0.7-3.5,2.4c0,0-7.6,24.2-7.5,26.2c0,0.1-0.1,0.2-0.2,0.2l0,0
					c-0.1,0-0.2-0.1-0.2-0.1l-8.8-19.5c0,0-7.3,17.3-7.4,19.4c0,0.1-0.1,0.2-0.2,0.2h0c-0.1,0-0.2-0.1-0.2-0.1l-9.7-26.3
					c-0.7-1.7-2.3-2.3-3.5-2.3h-0.3v-0.4h12.4v0.4h-0.4c-1,0-2.1,0.9-1.6,2.5l5,14.1l7.4-17.7l0.4,0l8.1,17.8l4.1-14.3
					c0.4-1.6-0.4-2.5-1.5-2.5h-0.4v-0.4L251.3,275.6z"/>
			</g>
			<g>
				<path class="st0" d="M270.8,304.6c0.9,0.2,1.9,0.3,2.9,0.3c1.1,0,2.3-0.1,3.3-0.4l-3.2-9L270.8,304.6z"/>
				<path class="st0" d="M284.6,289l4.1,0c-0.3-6.6-4.8-12.1-11-13.8l5.4,12.3C283.6,288.3,284.1,288.8,284.6,289z"/>
				<path class="st0" d="M263.7,290.7c-0.2,0.2-0.2,0.6-0.1,1l3.7,11.9c0.4,0.2,0.8,0.4,1.3,0.5l4.3-13.3H263.7z"/>
				<path class="st0" d="M259.1,290.7h-0.5c0.2,4,2,7.5,4.7,10.1l-3.1-8.8C259.9,291.4,259.5,290.9,259.1,290.7z"/>
				<path class="st0" d="M266.9,288.9c0,0.1,0.1,0.1,0.1,0.1h6.4h1.4h4.7c0,0,0.1-0.1,0.1-0.1c0.2-0.2,0.2-0.6,0-1l-5.3-13.3
					c-0.2,0-0.5,0-0.7,0c-0.4,0-0.9,0-1.3,0.1l-5.5,13.3C266.7,288.3,266.7,288.6,266.9,288.9z"/>
				<path class="st0" d="M287.1,292l-2.6,8.3c2.4-2.5,4-5.9,4.2-9.6h-0.5C287.8,290.9,287.3,291.4,287.1,292z"/>
				<path class="st0" d="M269.6,275.1c-6.2,1.7-10.8,7.2-11.1,13.9h4.2c0.5-0.2,1-0.7,1.4-1.5L269.6,275.1z"/>
				<path class="st0" d="M275.4,290.7l4.6,12.8c0.4-0.2,0.8-0.4,1.2-0.6l3.2-11.3c0.1-0.4,0.1-0.7-0.1-0.9H275.4z"/>
			</g>
		</g>
		<path class="st0" d="M87,286.2h4.3c1.2,0,2,0.3,2.5,1c0.3,0.4,0.4,0.9,0.4,1.4c0,0.6-0.2,1.1-0.5,1.5c-0.2,0.2-0.5,0.4-0.8,0.6
			c0.5,0.2,0.9,0.4,1.1,0.7c0.4,0.4,0.7,1,0.7,1.8c0,0.6-0.2,1.2-0.6,1.7c-0.6,0.8-1.6,1.2-2.9,1.2H87V286.2z M90.8,290.4
			c0.6,0,1-0.1,1.3-0.2c0.5-0.2,0.8-0.7,0.8-1.3c0-0.7-0.3-1.1-0.8-1.3c-0.3-0.1-0.7-0.2-1.3-0.2h-2.4v3.1H90.8z M91.3,295
			c0.8,0,1.4-0.2,1.8-0.7c0.2-0.3,0.3-0.7,0.3-1.1c0-0.7-0.3-1.2-1-1.5c-0.3-0.1-0.8-0.2-1.4-0.2h-2.7v3.5H91.3z"/>
		<path class="st0" d="M95.5,286.2h1.6l2.9,4.8l2.9-4.8h1.6l-3.8,5.9v4h-1.3v-4L95.5,286.2z"/>
	</g>
</g>
</svg>
